<?xml version="1.0" encoding="utf-8"?>
<!-- Generator: Adobe Illustrator 26.0.3, SVG Export Plug-In . SVG Version: 6.00 Build 0)  -->
<svg version="1.1" id="be87bea0-544a-476c-968d-637ee24ed3f7"
	 xmlns="http://www.w3.org/2000/svg" xmlns:xlink="http://www.w3.org/1999/xlink" x="0px" y="0px" width="124.7px" height="51.7px"
	 viewBox="0 0 124.7 51.7" style="enable-background:new 0 0 124.7 51.7;" xml:space="preserve">
<style type="text/css">
	.st0{fill:#000000;}
	.st1{fill:#F69322;}
	.st2{fill:#D91F5E;}
	.st3{fill:#65318E;}
	.st4{fill:#E8128B;}
	.st5{fill:#1E76BA;}
	.st6{fill:#D7DE29;}
</style>
<path class="st0" d="M0,2h3.6l3.9,11.9C8,15.1,8.4,17,8.4,17s0.6-1.9,1.1-3.2l5.1-12.1H15l5.1,12.1c0.4,1,0.8,2.1,1,3.2
	c0,0,0.5-1.9,0.9-3.2L26,2h3.4l-7.7,22.5h-0.4l-5.5-13.3c-0.4-0.9-0.7-1.8-0.9-2.7c0,0-0.5,1.6-1,2.7L8.2,24.5H7.8L0,2z"/>
<path class="st0" d="M54.8,1.7h0.4l10.6,12.5L76.4,1.7h0.4v22.5h-3.3V12.7c0-1.2,0.1-3.2,0.1-3.2c-0.6,0.9-1.3,1.8-2,2.7L66,18.9
	h-0.4L60,12.2c-0.9-1-2-2.7-2-2.7s0.1,2,0.1,3.2v11.6h-3.3V1.7z"/>
<polygon class="st0" points="80.5,2 94.7,2 94.7,5 84,5 84,13.7 93.4,13.7 93.4,16.6 84,16.6 84,21.2 95.1,21.2 95.1,24.2 
	80.5,24.2 80.5,2 "/>
<path class="st0" d="M103.2,11.2c-0.9-1-2.1-2.5-2.1-2.5c0.1,1.1,0.2,2.1,0.2,3.2v12.3h-3.2V1.7h0.5l12.3,13.2
	c0.9,0.9,2.1,2.5,2.1,2.5s-0.2-2-0.2-3.2V2h3.2v22.5h-0.4L103.2,11.2z"/>
<path class="st0" d="M21.8,39.9c0-4.9-3.4-8.6-8.2-8.6S5.4,35,5.4,39.9s3.4,8.6,8.2,8.6S21.8,44.8,21.8,39.9z M1.7,39.9
	c-0.1-6.4,5-11.7,11.4-11.8c0.2,0,0.3,0,0.5,0C20,28,25.3,33,25.4,39.4c0,0.2,0,0.3,0,0.5c0.1,6.4-5,11.7-11.4,11.8
	c-0.2,0-0.3,0-0.5,0C7.2,51.9,1.9,46.8,1.7,40.4C1.7,40.2,1.7,40.1,1.7,39.9z"/>
<path class="st0" d="M25.3,28.4H29l4.1,12.2c0.4,1.3,0.9,3.3,0.9,3.3s0.6-2,1.1-3.3l5.3-12.5h0.4l5.3,12.5c0.4,1.1,0.8,2.2,1.1,3.3
	c0,0,0.5-2,0.9-3.3l4.1-12.2h3.5l-8,23.2h-0.4l-5.7-13.7c-0.4-0.9-0.7-1.9-0.9-2.8c0,0-0.5,1.7-1,2.8l-5.9,13.7h-0.4L25.3,28.4z"/>
<path class="st0" d="M62.9,38c-0.9-1-2.2-2.6-2.2-2.6c0.1,1.1,0.2,2.2,0.2,3.3v12.7h-3.3V28.2h0.5l12.7,13.6
	c0.9,0.9,2.1,2.6,2.1,2.6s-0.2-2-0.2-3.3V28.4H76v23.2h-0.4L62.9,38z"/>
<polygon class="st0" points="79.9,28.4 94.5,28.4 94.5,31.5 83.5,31.5 83.5,40.5 93.3,40.5 93.3,43.6 83.5,43.6 83.5,48.3 95,48.3 
	95,51.4 79.9,51.4 79.9,28.4 "/>
<path class="st0" d="M104.1,48.3c6,0,8.8-3.5,8.8-8.4s-2.8-8.4-8.8-8.4h-2.5v16.7H104.1z M98.1,28.4h6.3c7.4,0,12.3,4.6,12.3,11.5
	s-4.9,11.5-12.3,11.5h-6.3C98.1,51.4,98.1,28.4,98.1,28.4z"/>
<path class="st1" d="M35.4,10.7c0.7,0.3,1.3,0.6,1.8,1.1c0,0,0-0.1,0.1-0.1c0.2-0.3,0.4-0.6,0.6-0.9c0.2-0.4,0.4-0.8,0.5-1.2
	c0-0.1,0.1-0.3,0.1-0.4l0-0.3c0-0.1,0.1-0.3,0.1-0.4c0.1-0.6,0.1-1.2,0-1.8c-0.1-0.7-0.2-1.4-0.4-2c0-0.1-0.1-0.2-0.1-0.3
	c-0.2-0.3-0.5-0.5-0.8-0.6c-0.3-0.1-0.5-0.1-0.8,0c-0.7,0.2-1.2,1-0.9,1.7c0,0.1,0.1,0.3,0.1,0.4c0,0.1,0.1,0.3,0.1,0.4
	c0,0.1,0,0.2,0.1,0.3s0,0.2,0,0.3c0.1,0.5,0.1,1,0,1.5c0,0.2-0.1,0.4-0.2,0.6c-0.1,0.2-0.1,0.3-0.2,0.5c-0.1,0.2-0.2,0.4-0.4,0.5
	c-0.1,0.1-0.3,0.3-0.4,0.4c0,0-0.1,0.1-0.1,0.1l0.4,0.1L35.4,10.7L35.4,10.7z"/>
<path class="st1" d="M31.9,8.8c1,0,1.7-0.8,1.7-1.7c0-1-0.8-1.7-1.7-1.7c-1,0-1.7,0.8-1.7,1.7c0,0,0,0,0,0C30.2,8.1,31,8.8,31.9,8.8
	z"/>
<path class="st2" d="M35.6,16c0.1,0.2,0.2,0.4,0.3,0.6c0.1,0.2,0.1,0.4,0.1,0.5l0,0.1c0.1-0.1,0.2-0.2,0.3-0.2l0.4-0.3
	c0.6-0.5,1.2-0.8,1.9-1.1c0,0,0-0.1,0-0.1c-0.1-0.3-0.3-0.6-0.4-0.9c-0.2-0.4-0.5-0.7-0.8-1.1c-0.1-0.1-0.2-0.2-0.3-0.3l-0.2-0.2
	c-0.1-0.1-0.2-0.2-0.3-0.2c-0.5-0.4-1-0.7-1.5-0.9c-0.6-0.3-1.3-0.5-2-0.7c-0.1,0-0.2,0-0.3,0c-0.4,0-0.7,0.1-1,0.4
	c-0.2,0.2-0.3,0.4-0.4,0.7c-0.2,0.8,0.3,1.5,1,1.7c0.1,0,0.3,0.1,0.4,0.1s0.3,0.1,0.4,0.1c0.1,0,0.2,0.1,0.3,0.1s0.2,0.1,0.3,0.1
	c0.5,0.2,0.9,0.5,1.3,0.8c0.1,0.1,0.3,0.3,0.4,0.4C35.4,15.7,35.5,15.9,35.6,16L35.6,16z"/>
<path class="st2" d="M32.7,16.5c-0.8-0.5-1.9-0.2-2.4,0.6c-0.5,0.8-0.2,1.9,0.6,2.4c0.8,0.5,1.9,0.2,2.4-0.6
	c0.2-0.4,0.3-0.9,0.2-1.3C33.4,17.1,33.1,16.7,32.7,16.5z"/>
<path class="st3" d="M37,21.6c0.4,0,0.7-0.2,1-0.4c0.1-0.1,0.2-0.2,0.3-0.3s0.2-0.2,0.3-0.3c0.1-0.1,0.2-0.1,0.2-0.2
	c0.1-0.1,0.1-0.1,0.2-0.2c0.4-0.3,0.9-0.6,1.3-0.8c0.2-0.1,0.4-0.1,0.6-0.1c0.4-0.1,0.8-0.1,1.1,0c0.2,0,0.4,0.1,0.5,0.2l0.1,0
	c0-0.1,0-0.3-0.1-0.4l-0.1-0.5c-0.1-0.7-0.1-1.4,0-2.1c0,0-0.1,0-0.1,0c-0.8-0.1-1.6-0.1-2.4,0.1c-0.1,0-0.3,0.1-0.4,0.1l-0.2,0.1
	c-0.2,0.1-0.3,0.1-0.4,0.1c-0.6,0.2-1.1,0.5-1.6,0.9c-0.6,0.4-1.1,0.9-1.6,1.4c-0.1,0.1-0.1,0.2-0.2,0.3c-0.2,0.3-0.2,0.7-0.1,1
	c0.1,0.3,0.2,0.5,0.4,0.7C36.3,21.4,36.6,21.6,37,21.6L37,21.6z"/>
<path class="st3" d="M41.2,21.8c-1,0-1.7,0.8-1.7,1.7c0,1,0.8,1.7,1.7,1.7c1,0,1.7-0.8,1.7-1.7c0-0.3-0.1-0.6-0.2-0.9
	C42.4,22.1,41.9,21.8,41.2,21.8z"/>
<path class="st4" d="M47.2,14.6c-0.7-0.3-1.3-0.6-1.8-1.1c0,0,0,0.1-0.1,0.1c-0.5,0.6-0.9,1.3-1.1,2.1c0,0.1-0.1,0.3-0.1,0.4
	L44,16.3c0,0.2-0.1,0.3-0.1,0.4c-0.1,0.6-0.1,1.2,0,1.8c0.1,0.7,0.2,1.4,0.4,2c0,0.1,0.1,0.2,0.1,0.3c0.2,0.3,0.5,0.5,0.8,0.6
	c0.3,0.1,0.5,0.1,0.8,0c0.7-0.2,1.2-1,0.9-1.7c0-0.1-0.1-0.3-0.1-0.4c0-0.1-0.1-0.3-0.1-0.4c0-0.1,0-0.2-0.1-0.3s0-0.2,0-0.3
	c-0.1-0.5-0.1-1,0-1.5c0-0.2,0.1-0.4,0.2-0.6c0.1-0.4,0.3-0.7,0.6-1c0.1-0.1,0.3-0.3,0.4-0.4l0.1-0.1l-0.4-0.1L47.2,14.6L47.2,14.6z
	"/>
<path class="st4" d="M50.7,16.4c-1,0-1.7,0.8-1.7,1.7c0,1,0.8,1.7,1.7,1.7c1,0,1.7-0.8,1.7-1.7c0,0,0,0,0,0
	C52.4,17.1,51.7,16.4,50.7,16.4z"/>
<path class="st5" d="M50,14c0.4,0,0.7-0.1,1-0.4c0.2-0.2,0.3-0.4,0.4-0.7c0.2-0.8-0.3-1.5-1-1.7c0,0,0,0,0,0c-0.1,0-0.3-0.1-0.4-0.1
	c-0.1,0-0.3-0.1-0.4-0.1c-0.1,0-0.2-0.1-0.3-0.1s-0.2-0.1-0.3-0.1c-0.5-0.2-0.9-0.5-1.3-0.8c-0.1-0.1-0.3-0.3-0.4-0.4
	c-0.1-0.1-0.2-0.3-0.3-0.4c-0.1-0.2-0.2-0.4-0.3-0.6c-0.1-0.2-0.1-0.4-0.1-0.5c0,0,0-0.1,0-0.1l-0.3,0.2l-0.3,0.3
	c-0.6,0.5-1.2,0.8-1.9,1.1c0,0,0,0.1,0,0.1c0.3,0.8,0.7,1.4,1.2,2c0.1,0.1,0.2,0.2,0.3,0.3l0.2,0.2c0.1,0.1,0.2,0.2,0.3,0.2
	c0.5,0.4,1,0.7,1.5,0.9c0.6,0.3,1.3,0.5,2,0.7C49.8,14,49.9,14,50,14L50,14z"/>
<path class="st5" d="M49.9,8.7c0.8,0.5,1.9,0.2,2.4-0.6c0.5-0.8,0.2-1.9-0.6-2.4c-0.8-0.5-1.9-0.2-2.4,0.6
	C48.8,7.2,49.1,8.2,49.9,8.7z"/>
<path class="st6" d="M40,6.5c0.1,0.7,0.1,1.4,0,2.1l0.1,0c0.8,0.1,1.6,0.1,2.4-0.1c0.1,0,0.3-0.1,0.4-0.1l0.2-0.1
	c0.1-0.1,0.3-0.1,0.4-0.1c0.6-0.2,1.1-0.5,1.6-0.9C45.7,7,46.2,6.5,46.7,6c0.1-0.1,0.1-0.2,0.2-0.3c0.2-0.3,0.2-0.7,0.1-1
	c-0.1-0.3-0.2-0.5-0.4-0.7c-0.3-0.2-0.6-0.4-1-0.4c-0.4,0-0.8,0.2-1,0.4c-0.1,0.1-0.2,0.2-0.3,0.3c-0.1,0.1-0.2,0.2-0.3,0.3
	c-0.1,0.1-0.2,0.1-0.2,0.2S43.7,5,43.6,5c-0.4,0.3-0.8,0.6-1.3,0.7c-0.2,0.1-0.4,0.1-0.6,0.1c-0.4,0.1-0.8,0.1-1.2,0
	c-0.2,0-0.4-0.1-0.5-0.2l-0.1,0c0,0.1,0,0.3,0.1,0.4L40,6.5L40,6.5z"/>
<path class="st6" d="M42.2,3.2c0.8-0.5,1.1-1.5,0.6-2.4c-0.5-0.8-1.5-1.1-2.4-0.6c-0.8,0.5-1.1,1.5-0.6,2.4
	C40.4,3.4,41.4,3.7,42.2,3.2L42.2,3.2z"/>
<g>
	<g>
		<path class="st0" d="M117.8,4.5c0-1.4,1.1-2.5,2.5-2.5c1.4,0,2.5,1,2.5,2.5c0,1.4-1.1,2.5-2.5,2.5C118.9,6.9,117.8,5.9,117.8,4.5z
			 M122.3,4.5c0-1.2-0.9-2.1-2-2.1c-1.2,0-2,0.8-2,2.1c0,1.2,0.8,2,2,2C121.4,6.5,122.3,5.7,122.3,4.5z M121.4,5.9h-0.6l-0.5-0.7
			c0,0-0.1,0-0.1,0h-0.3v0.7h-0.6V3.1h0.9c0.8,0,1.2,0.5,1.2,1.1c0,0.4-0.2,0.7-0.6,0.9L121.4,5.9z M120.2,4.7
			c0.5,0,0.7-0.2,0.7-0.6s-0.2-0.6-0.7-0.6h-0.3v1.2H120.2z"/>
	</g>
</g>
</svg>
